<svg width="0" height="0" class="hidden">
  <symbol xmlns="http://www.w3.org/2000/svg" viewBox="0 0 32 32" id="youtube">
    <path d="M31.681 9.6s-.313-2.206-1.275-3.175C29.187 5.15 27.825 5.144 27.2 5.069c-4.475-.325-11.194-.325-11.194-.325h-.012s-6.719 0-11.194.325c-.625.075-1.987.081-3.206 1.356C.631 7.394.325 9.6.325 9.6s-.319 2.588-.319 5.181v2.425c0 2.587.319 5.181.319 5.181s.313 2.206 1.269 3.175c1.219 1.275 2.819 1.231 3.531 1.369 2.563.244 10.881.319 10.881.319s6.725-.012 11.2-.331c.625-.075 1.988-.081 3.206-1.356.962-.969 1.275-3.175 1.275-3.175s.319-2.587.319-5.181v-2.425c-.006-2.588-.325-5.181-.325-5.181zM12.694 20.15v-8.994l8.644 4.513-8.644 4.481z"></path>
  </symbol>
  <symbol xmlns="http://www.w3.org/2000/svg" viewBox="0 0 32 32" id="twitter">
    <path d="M32 7.075a12.941 12.941 0 0 1-3.769 1.031 6.601 6.601 0 0 0 2.887-3.631 13.21 13.21 0 0 1-4.169 1.594A6.565 6.565 0 0 0 22.155 4a6.563 6.563 0 0 0-6.563 6.563c0 .512.056 1.012.169 1.494A18.635 18.635 0 0 1 2.23 5.195a6.56 6.56 0 0 0-.887 3.3 6.557 6.557 0 0 0 2.919 5.463 6.565 6.565 0 0 1-2.975-.819v.081a6.565 6.565 0 0 0 5.269 6.437 6.574 6.574 0 0 1-2.968.112 6.588 6.588 0 0 0 6.131 4.563 13.17 13.17 0 0 1-9.725 2.719 18.568 18.568 0 0 0 10.069 2.95c12.075 0 18.681-10.006 18.681-18.681 0-.287-.006-.569-.019-.85A13.216 13.216 0 0 0 32 7.076z"></path>
  </symbol>
  <symbol xmlns="http://www.w3.org/2000/svg" viewBox="0 0 32 32" id="instagram">
    <path d="M16 2.881c4.275 0 4.781.019 6.462.094 1.563.069 2.406.331 2.969.55a4.952 4.952 0 0 1 1.837 1.194 5.015 5.015 0 0 1 1.2 1.838c.219.563.481 1.412.55 2.969.075 1.688.094 2.194.094 6.463s-.019 4.781-.094 6.463c-.069 1.563-.331 2.406-.55 2.969a4.94 4.94 0 0 1-1.194 1.837 5.02 5.02 0 0 1-1.837 1.2c-.563.219-1.413.481-2.969.55-1.688.075-2.194.094-6.463.094s-4.781-.019-6.463-.094c-1.563-.069-2.406-.331-2.969-.55a4.952 4.952 0 0 1-1.838-1.194 5.02 5.02 0 0 1-1.2-1.837c-.219-.563-.481-1.413-.55-2.969-.075-1.688-.094-2.194-.094-6.463s.019-4.781.094-6.463c.069-1.563.331-2.406.55-2.969a4.964 4.964 0 0 1 1.194-1.838 5.015 5.015 0 0 1 1.838-1.2c.563-.219 1.412-.481 2.969-.55 1.681-.075 2.188-.094 6.463-.094zM16 0c-4.344 0-4.887.019-6.594.094-1.7.075-2.869.35-3.881.744-1.056.412-1.95.956-2.837 1.85a7.833 7.833 0 0 0-1.85 2.831C.444 6.538.169 7.7.094 9.4.019 11.113 0 11.656 0 16s.019 4.887.094 6.594c.075 1.7.35 2.869.744 3.881.413 1.056.956 1.95 1.85 2.837a7.82 7.82 0 0 0 2.831 1.844c1.019.394 2.181.669 3.881.744 1.706.075 2.25.094 6.594.094s4.888-.019 6.594-.094c1.7-.075 2.869-.35 3.881-.744 1.05-.406 1.944-.956 2.831-1.844s1.438-1.781 1.844-2.831c.394-1.019.669-2.181.744-3.881.075-1.706.094-2.25.094-6.594s-.019-4.887-.094-6.594c-.075-1.7-.35-2.869-.744-3.881a7.506 7.506 0 0 0-1.831-2.844A7.82 7.82 0 0 0 26.482.843C25.463.449 24.301.174 22.601.099c-1.712-.081-2.256-.1-6.6-.1z"></path>
    <path d="M16 7.781c-4.537 0-8.219 3.681-8.219 8.219s3.681 8.219 8.219 8.219 8.219-3.681 8.219-8.219A8.221 8.221 0 0 0 16 7.781zm0 13.55a5.331 5.331 0 1 1 0-10.663 5.331 5.331 0 0 1 0 10.663zM26.462 7.456a1.919 1.919 0 1 1-3.838 0 1.919 1.919 0 0 1 3.838 0z"></path>
  </symbol>
  <symbol xmlns="http://www.w3.org/2000/svg" viewBox="0 0 32 32" id="facebook">
    <path d="M19 6h5V0h-5c-3.86 0-7 3.14-7 7v3H8v6h4v16h6V16h5l1-6h-6V7c0-.542.458-1 1-1z"></path>
  </symbol>
     <symbol xmlns="http://www.w3.org/2000/svg" viewBox="0 0 80 80" id="twitterx">
    <path d="M18 10c-4.406 0-8 3.594-8 8v44c0 4.406 3.594 8 8 8h44c4.406 0 8-3.594 8-8V18c0-4.406-3.594-8-8-8H18zm0 2h44c3.326 0 6 2.674 6 6v44c0 3.326-2.674 6-6 6H18c-3.326 0-6-2.674-6-6V18c0-3.326 2.674-6 6-6zm0 3a.994.994 0 0 0-.707.293.997.997 0 0 0-.215 1.096A1.008 1.008 0 0 0 18 17a1 1 0 0 0 0-2zm4 0a.994.994 0 0 0-.707.293.997.997 0 0 0-.215 1.096A1.008 1.008 0 0 0 22 17a1 1 0 0 0 0-2zm4 0a1.002 1.002 0 0 0-.922 1.389A1.006 1.006 0 0 0 26 17a1 1 0 0 0 0-2zm4 0a.994.994 0 0 0-.922.611.994.994 0 0 0 0 .778A1.002 1.002 0 0 0 31 16a1 1 0 0 0-1-1zm4 0a.994.994 0 0 0-.707.293A1.002 1.002 0 0 0 34 17a1 1 0 0 0 0-2zm4 0a.994.994 0 0 0-.922.611A1 1 0 1 0 38 15zm4 0a1.002 1.002 0 0 0 0 2 1 1 0 0 0 0-2zm4 0a.997.997 0 0 0-1 1 1.002 1.002 0 0 0 2 0 1 1 0 0 0-1-1zm4 0a1.002 1.002 0 0 0-.922 1.389A1.006 1.006 0 0 0 50 17a1 1 0 0 0 0-2zm4 0a.994.994 0 0 0-.707.293.997.997 0 0 0 0 1.414.997.997 0 0 0 1.096.215A1.002 1.002 0 0 0 54 15zm4 0a.997.997 0 0 0-1 1 .994.994 0 0 0 .293.707A1 1 0 1 0 58 15zm4 0a.994.994 0 0 0-.707.293.997.997 0 0 0 0 1.414A1 1 0 1 0 62 15zm-38 8 12.943 18.285L24 57h3l11.33-13.756L48.066 57H57L43.117 37.43 55 23h-3L41.729 35.473 32.88 23H24zm3.865 2h3.983l21.28 30h-4.026L27.865 25zM18 63a.994.994 0 0 0-.707.293.997.997 0 0 0 0 1.414A1.006 1.006 0 0 0 18 65a1.002 1.002 0 0 0 0-2zm4 0a.994.994 0 0 0-.922.611A.997.997 0 0 0 22 65a1 1 0 0 0 0-2zm4 0a.997.997 0 0 0-1 1 .997.997 0 0 0 1 1 1 1 0 0 0 0-2zm4 0a.994.994 0 0 0-.922.611A1 1 0 1 0 30 63zm4 0a.994.994 0 0 0-.922.611A.997.997 0 0 0 34 65a1 1 0 0 0 0-2zm4 0a.997.997 0 0 0-1 1 .997.997 0 0 0 1 1 1 1 0 0 0 0-2zm4 0a.997.997 0 0 0-1 1 .994.994 0 0 0 .293.707.997.997 0 0 0 1.096.215A1.002 1.002 0 0 0 42 63zm4 0a.994.994 0 0 0-.707.293.997.997 0 0 0 0 1.414.997.997 0 0 0 1.096.215A1.002 1.002 0 0 0 46 63zm4 0a.994.994 0 0 0-.707.293.997.997 0 0 0-.215 1.096A1.002 1.002 0 0 0 51 64a1 1 0 0 0-1-1zm4 0a.994.994 0 0 0-.922.611A1 1 0 1 0 54 63zm4 0a.994.994 0 0 0-.922.611A.997.997 0 0 0 58 65a1.002 1.002 0 0 0 0-2zm4 0a.997.997 0 0 0-1 1 .994.994 0 0 0 .611.922.994.994 0 0 0 .778 0A1.002 1.002 0 0 0 62 63z"></path>
  </symbol>
   <symbol xmlns="http://www.w3.org/2000/svg" viewBox="0 0 32 32" id="download">
    <path d="m18 8-4-4H0v26h32V8H18zm-2 19-7-7h5v-8h4v8h5l-7 7z"></path>
  </symbol>
</svg>